# xmcd
#
# Track frame offsets: 
#        150
#        23610
#        40182
#        57760
#        74425
#        92240
#        113500
#        137472
#        157340
#        177177
#        195752
#
# Disc length: 2913 seconds
#
# Revision: 2
# Processed by: cddbd v1.5.2PL0 Copyright (c) Steve Scherf et al.
# Submitted via: ExactAudioCopy v0.99pb4
#
DISCID=870b5f0b
DTITLE=Crystal Lewis - Himnos de Mi Vida
DYEAR=1995
DGENRE=Christian
TTITLE0=Estoy Bien
TTITLE1=De Tal Manera Me Amó
TTITLE2=En Jesucristo
TTITLE3=Alabanzas Dad a Cristo
TTITLE4=Tal Como Soy - Yo Me Rindo a Él
TTITLE5=Prefiero a Cristo
TTITLE6=Cuán Grande es Él
TTITLE7=La Roca Firme
TTITLE8=El Peregrino
TTITLE9=Haz lo Que Quieras
TTITLE10=A Dios Sea la Gloria
EXTD=
EXTT0=
EXTT1=
EXTT2=
EXTT3=
EXTT4=
EXTT5=
EXTT6=
EXTT7=
EXTT8=
EXTT9=
EXTT10=
PLAYORDER=
